<?xml version="1.0" standalone="no"?>
<!DOCTYPE svg PUBLIC "-//W3C//DTD SVG 20010904//EN"
 "http://www.w3.org/TR/2001/REC-SVG-20010904/DTD/svg10.dtd">
<svg version="1.0" xmlns="http://www.w3.org/2000/svg"
 width="200.000000pt" height="200.000000pt" viewBox="0 0 200.000000 200.000000"
 preserveAspectRatio="xMidYMid meet">
<metadata>
Created by potrace 1.11, written by Peter Selinger 2001-2013
</metadata>
<g transform="translate(0.000000,200.000000) scale(0.100000,-0.100000)"
fill="#000000" stroke="none">
<path d="M825 1984 c-44 -8 -87 -17 -95 -21 -8 -3 -24 -8 -34 -10 -11 -2 -25
-8 -33 -14 -7 -6 -13 -8 -13 -4 0 4 -6 2 -13 -4 -8 -6 -17 -8 -20 -4 -4 3 -7
0 -7 -7 0 -7 -3 -11 -6 -7 -17 16 -215 -116 -302 -201 -342 -336 -393 -873
-122 -1273 52 -76 222 -249 246 -249 3 0 20 -11 37 -24 29 -22 182 -104 182
-97 0 1 24 -7 53 -18 29 -12 67 -23 85 -26 17 -2 48 -8 67 -11 19 -4 91 -7
160 -7 124 1 223 16 311 48 24 9 51 18 59 20 8 2 17 4 20 5 3 1 8 2 13 1 4 0
7 2 7 7 0 4 15 13 33 21 169 73 374 293 461 496 60 139 80 238 79 400 0 160
-21 263 -81 400 -86 199 -254 379 -442 477 -78 40 -138 66 -165 71 -11 2 -27
7 -35 10 -83 32 -319 43 -445 21z"/>
</g>
</svg>
