<?xml version="1.0" encoding="utf-8"?>
<!-- Generator: Adobe Illustrator 23.0.4, SVG Export Plug-In . SVG Version: 6.00 Build 0)  -->
<svg version="1.1" id="레이어_1" xmlns="http://www.w3.org/2000/svg" xmlns:xlink="http://www.w3.org/1999/xlink" x="0px"
	 y="0px" viewBox="0 0 24 24" style="enable-background:new 0 0 24 24;" xml:space="preserve">
<style type="text/css">
	.st0{fill:#89CED4;}
	.st1{fill:#B9E2E5;}
	.st2{fill:#BCE3E6;}
	.st3{fill:#E7F5F6;}
	.st4{fill:#D9EFF1;}
	.st5{fill:#B2DFE3;}
	.st6{fill:#E3F2F4;}
	.st7{fill:#B6E1E4;}
	.st8{fill:#F1F8F9;}
	.st9{fill:#DBEFF2;}
	.st10{fill:#FAD8B0;}
	.st11{fill:#675041;}
	.st12{fill:#F3CFAF;}
	.st13{fill:#785E4B;}
	.st14{fill:#3A4849;}
	.st15{fill:#415655;}
	.st16{fill:#F3B898;}
	.st17{fill:#E59E83;}
	.st18{fill:#F6D8B2;}
	.st19{fill:#EFCDAE;}
	.st20{fill:#8ED1D6;}
	.st21{fill:#8ACED5;}
	.st22{fill:#8ED6DC;}
	.st23{fill:#7FCED8;}
	.st24{fill:#8ACFD5;}
	.st25{fill:#83CDD6;}
	.st26{fill:#3C4E4D;}
	.st27{fill:#82CFD8;}
	.st28{fill:#8FD8DF;}
	.st29{fill:#6A999C;}
	.st30{fill:#7D948D;}
	.st31{fill:#7DCED8;}
	.st32{fill:#80CDD7;}
	.st33{fill:#839F98;}
	.st34{fill:#6A9A9D;}
	.st35{fill:#8FD8DE;}
	.st36{fill:#768379;}
	.st37{fill:#8CDAE2;}
	.st38{fill:#765440;}
	.st39{fill:#71A4A8;}
	.st40{fill:#7F9D97;}
	.st41{fill:#333D3E;}
	.st42{fill:#8BD7DE;}
	.st43{fill:#8BD9E0;}
	.st44{fill:#8BD7DF;}
	.st45{fill:#8CD8E1;}
	.st46{fill:#7FCED7;}
	.st47{fill:#8BD6DE;}
	.st48{fill:#8DD9E1;}
	.st49{fill:#80CDD6;}
	.st50{fill:#8BDAE2;}
	.st51{fill:#644636;}
	.st52{fill:#77543E;}
	.st53{fill:#654733;}
	.st54{fill:#FDD0AC;}
	.st55{fill:#80D0DA;}
	.st56{fill:#80D2DB;}
	.st57{fill:#8CD8E0;}
	.st58{fill:#80CED8;}
	.st59{fill:#8AD6DD;}
	.st60{fill:#8BD9E3;}
	.st61{fill:#8AD8E0;}
	.st62{fill:#8CDAE3;}
	.st63{fill:#8BDAE3;}
	.st64{fill:#8CDBE5;}
	.st65{fill:#8AD8E1;}
	.st66{fill:#644736;}
	.st67{fill:#654431;}
	.st68{fill:#75523E;}
	.st69{fill:#91DAE1;}
	.st70{fill:#90D9E1;}
	.st71{fill:#8FD7DE;}
	.st72{fill:#343E3E;}
	.st73{fill:#F1AE8F;}
	.st74{fill:#4B4746;}
	.st75{fill:#FDF9F3;}
	.st76{fill:#393A3D;}
	.st77{fill:#90735C;}
	.st78{fill:#AE917D;}
	.st79{fill:#3B3C3E;}
	.st80{fill:#FEE1B7;}
	.st81{fill:#CEB495;}
	.st82{fill:#FEE0B5;}
	.st83{fill:#FDDDB5;}
	.st84{fill:#FAD5AA;}
	.st85{fill:#A7886D;}
	.st86{fill:#FEE2B9;}
	.st87{fill:#9D7F65;}
	.st88{fill:#6C5343;}
	.st89{fill:#A68B75;}
	.st90{fill:#FEE1B8;}
	.st91{fill:#6D5443;}
	.st92{fill:#6E5545;}
	.st93{fill:#6E5544;}
	.st94{fill:#856F61;}
	.st95{fill:#7E6A5E;}
	.st96{fill:#FEE4BA;}
	.st97{fill:#5B463A;}
	.st98{fill:#594439;}
	.st99{fill:#5E493C;}
	.st100{fill:#BD9D83;}
	.st101{fill:#564238;}
	.st102{fill:#544033;}
	.st103{fill:#9F826C;}
	.st104{fill:#806653;}
	.st105{fill:#533E34;}
	.st106{fill:#654737;}
	.st107{fill:#664B3A;}
	.st108{fill:#554138;}
	.st109{fill:#5E483A;}
	.st110{fill:#FAD6B5;}
	.st111{fill:#5D4739;}
	.st112{fill:#644434;}
	.st113{fill:#EC9E85;}
	.st114{fill:#E18771;}
	.st115{fill:#3A3C3E;}
	.st116{fill:#DEDFDD;}
	.st117{fill:#775D4A;}
	.st118{fill:#F8D4B4;}
	.st119{fill:#FCD8B7;}
	.st120{fill:#F8D4B3;}
	.st121{fill:#FAD5B4;}
	.st122{fill:#554F4C;}
	.st123{fill:#FAD6B6;}
	.st124{fill:#F7DCBD;}
	.st125{fill:#A6876E;}
	.st126{fill:#664F3D;}
	.st127{fill:#FEDAB9;}
	.st128{fill:#866F63;}
	.st129{fill:#826B62;}
	.st130{fill:#5F483C;}
	.st131{fill:#614B3E;}
	.st132{fill:#674E41;}
	.st133{fill:#705745;}
	.st134{fill:#5E473B;}
	.st135{fill:#674F3E;}
	.st136{fill:#554137;}
	.st137{fill:#584438;}
	.st138{fill:#6B5241;}
	.st139{fill:#6C5241;}
	.st140{fill:#6F5544;}
	.st141{fill:#323B3C;}
	.st142{fill:#333D3D;}
	.st143{fill:#ED9E83;}
	.st144{fill:#FEE7BC;}
	.st145{fill:#303237;}
	.st146{fill:#393C3D;}
</style>
<path class="st0" d="M11.25,0c0.56,0,1.11,0,1.67,0c0.12,0.11,0.27,0.04,0.4,0.06c0.12,0,0.23,0,0.35,0
	c2.14-0.02,3.95,0.82,5.63,2.05c2.01,1.47,3.41,3.39,4.25,5.72c0.31,0.85,0.34,1.74,0.38,2.63c0,0.12,0,0.24,0,0.36
	c0.03,0.2-0.06,0.42,0.06,0.61c0,0.32,0,0.64,0,0.95c-0.11,0.15-0.04,0.33-0.06,0.5c0,0.12,0,0.23,0,0.35
	c0.03,2.27-0.82,4.23-2.19,5.98c-0.59,0.76-1.22,1.5-2.04,2.03c-0.05,0.02-0.11,0.03-0.17,0.03c-0.05-0.01-0.1-0.03-0.15-0.06
	c-0.06-0.04-0.09-0.11-0.14-0.16c-0.03-0.03-0.05-0.06-0.08-0.09c-0.03-0.02-0.06-0.05-0.09-0.07c-0.06-0.03-0.12-0.05-0.18-0.07
	c-0.39-0.17-0.78-0.35-1.14-0.57c-0.04-0.03-0.08-0.06-0.11-0.1c-0.04-0.03-0.08-0.05-0.12-0.08c-0.04-0.01-0.09-0.03-0.13-0.06
	c-0.02-0.01-0.04-0.03-0.06-0.04c-0.04-0.03-0.07-0.06-0.11-0.09c-0.1-0.06-0.21-0.1-0.32-0.13c-0.16-0.03-0.3,0.03-0.44,0.1
	c-0.06,0.02-0.11,0.03-0.17,0.04c-0.53,0.01-1.05,0.06-1.58-0.04c-0.05-0.01-0.11-0.02-0.16-0.03c-0.14,0-0.28-0.1-0.41,0.01
	c-0.03,0.04-0.07,0.06-0.11,0.09c-0.07,0.05-0.14,0.08-0.22,0.1c-0.09,0.01-0.17,0-0.25-0.04c-0.05-0.03-0.09-0.08-0.12-0.13
	c-0.07-0.38,0.14-0.58,0.45-0.72c0.05-0.03,0.11-0.05,0.16-0.08c2.14-0.61,3.61-2.01,4.64-3.94c0.05-0.11,0.13-0.2,0.2-0.29
	c0.03-0.05,0.06-0.11,0.09-0.17c0.02-0.06,0.05-0.11,0.07-0.17c0.01-0.04,0.03-0.08,0.04-0.11c0.01-0.04,0.02-0.08,0.03-0.12
	c0.01-0.04,0.02-0.08,0.04-0.12c0.02-0.06,0.03-0.13,0.05-0.19c0.02-0.07,0.04-0.13,0.06-0.2c0.01-0.07,0.03-0.14,0.05-0.21
	c0.02-0.1,0.05-0.19,0.09-0.28c0.08-0.16,0.13-0.33,0.18-0.51c0.1-0.3,0.01-0.63,0.12-0.93c0.2-0.25,0.57-0.33,0.7-0.67
	c0.11-0.18,0.19-0.36,0.05-0.56c-0.11-0.17-0.27-0.3-0.39-0.46c-0.17-0.24-0.39-0.48-0.22-0.82c0,0-0.08,0.03-0.12,0
	c-0.2-0.12-0.22-0.3-0.21-0.51c0.01-0.1,0.04-0.2,0.02-0.3c-0.04-0.08-0.08-0.16-0.1-0.25c-0.01-0.04-0.01-0.09-0.01-0.14
	c0-0.09,0.01-0.18-0.03-0.27c-0.02-0.04-0.03-0.09-0.04-0.13c-0.01-0.04-0.02-0.09-0.03-0.14c-0.02-0.07-0.05-0.13-0.08-0.19
	c-0.17-0.27-0.32-0.54-0.26-0.87C19,6.47,19.06,6.4,18.96,6.34c-0.12-0.08-0.19-0.19-0.24-0.32c-0.02-0.04-0.03-0.08-0.04-0.13
	c-0.02-0.06-0.03-0.12-0.04-0.18c-0.02-0.03-0.04-0.07-0.07-0.11c-0.06-0.07-0.09-0.16-0.1-0.25c0.04-0.1,0-0.12-0.09-0.11
	C18.19,5.19,18.1,5.04,18,4.89c-0.04-0.07-0.08-0.13-0.13-0.19c-0.25-0.34-0.62-0.59-0.81-0.98c-0.01-0.05,0.01-0.1,0.05-0.13
	c-0.04,0.03-0.09,0.04-0.14,0.05c-0.28-0.01-0.49-0.17-0.73-0.28c-0.05-0.02-0.09-0.04-0.13-0.07c-0.06-0.03-0.13-0.07-0.19-0.1
	c-0.04-0.01-0.08-0.04-0.13-0.06c-0.06-0.03-0.12-0.06-0.18-0.1c-0.04-0.01-0.08-0.04-0.12-0.06c-0.05-0.03-0.1-0.07-0.14-0.12
	c-0.03-0.02-0.06-0.04-0.09-0.07c-0.03-0.01-0.07-0.03-0.1-0.04c-0.04-0.01-0.08-0.02-0.11-0.03c0,0-0.06-0.02-0.06-0.02
	c-0.04-0.01-0.08-0.03-0.12-0.04c-0.09-0.01-0.18,0-0.27,0c-0.08,0-0.16,0-0.24,0.01c-0.09,0.01-0.18,0.03-0.28,0.03
	C12.96,2.4,11.83,2.66,10.7,2.7c-0.09-0.01-0.17-0.02-0.26-0.02c-0.1,0-0.2-0.01-0.3,0.03c-0.04,0.02-0.08,0.05-0.12,0.07
	C9.96,2.82,9.9,2.86,9.83,2.89C9.79,2.91,9.74,2.93,9.7,2.95C9.51,3.01,9.32,3.08,9.15,3.17C9.1,3.2,9.05,3.22,9,3.24
	c-0.9,0.31-1.64,0.88-2.34,1.5C6.6,4.8,6.55,4.85,6.5,4.92C6.37,5.07,6.25,5.24,6.03,5.28c-0.04,0.01-0.07-0.05-0.1-0.03
	c-0.02,0.01,0,0.06,0.02,0.1c0,0.21-0.08,0.35-0.29,0.41C5.62,5.77,5.6,5.73,5.57,5.71c0,0.03,0.01,0.07,0.02,0.1
	c0,0.13-0.05,0.22-0.16,0.29C5.31,6.11,5.31,6.17,5.36,6.25C5.32,6.72,5.1,7.09,4.78,7.41c-0.04,0.05-0.08,0.1-0.09,0.17
	c-0.02,0.07-0.05,0.13-0.1,0.17C4.53,7.76,4.52,7.81,4.54,7.86c0.01,0.06,0,0.13-0.01,0.19C4.52,8.1,4.5,8.14,4.49,8.18
	C4.47,8.25,4.44,8.31,4.41,8.37C4.39,8.43,4.36,8.49,4.35,8.55C4.33,8.61,4.31,8.68,4.29,8.74C4.27,8.82,4.25,8.9,4.23,8.99
	C4.22,9.07,4.17,9.15,4.12,9.21C4.07,9.33,4.16,9.42,4.18,9.53C4.21,9.7,4.19,9.86,4.1,10.02c-0.37,0.17-0.38,0.64-0.7,0.85
	c-0.03,0-0.06,0.01-0.09,0.03c0.03,0.03,0.07,0.01,0.1,0.03c0.28,0.25,0.38,0.67,0.74,0.86c0.03,0.09-0.01,0.18,0.03,0.27
	c-0.04,0-0.03,0-0.02-0.03c0.03-0.1-0.03-0.25,0.15-0.26c0.36,0.24,0.15,0.62,0.21,0.93c0.04,0.17-0.17,0.33-0.03,0.5
	c0.07,0.08,0.1,0.17,0.1,0.27c0.01,0.04,0.01,0.08,0.02,0.12c0.02,0.04,0.04,0.07,0.06,0.11c0.02,0.04,0.04,0.08,0.05,0.12
	C4.75,13.91,4.74,14,4.7,14.09c-0.02,0.05-0.09,0.11,0.01,0.15c0.04,0.02,0.08,0.04,0.11,0.07c0.22,0.31,0.37,0.66,0.52,1.01
	c0.98,1.68,2.31,2.97,4.18,3.62c0.2,0.07,0.42,0.12,0.61,0.22c0.39,0.22,0.42,0.44,0.12,0.84c-0.41,0.04-0.83,0.12-1.2-0.13
	c-0.13-0.22-0.34-0.12-0.52-0.15c-0.05-0.01-0.08,0-0.09,0.03c-0.02,0.08,0.03,0.1,0,0.03c-0.01-0.02,0-0.05,0.01-0.05
	c0.19,0.02,0.39-0.08,0.55,0.09c-0.15,0.48-0.6,0.22-0.89,0.36c-0.09,0.03-0.17,0.07-0.26,0.1c-0.8,0.1-1.51,0.51-2.29,0.68
	c-0.08,0.01-0.17-0.06-0.24,0.04c-0.06,0.08-0.13,0.14-0.2,0.2c-0.03,0.04-0.07,0.07-0.1,0.11c-0.06,0.06-0.13,0.09-0.22,0.1
	c-0.76-0.24-1.24-0.84-1.73-1.4c-1.82-2.12-2.99-4.5-2.92-7.38c0.03-1.03-0.03-2.06,0.09-3.08c0.23-1.92,1.1-3.58,2.25-5.1
	C3.9,2.6,5.74,1.36,7.84,0.48c0.81-0.34,1.66-0.31,2.5-0.42c0.09,0,0.18,0,0.26,0c0.08,0,0.17,0,0.25,0
	C10.99,0.04,11.14,0.1,11.25,0z"/>
<path class="st1" d="M24,11.44c-0.11,0.01-0.12-0.06-0.12-0.14c0-0.15,0-0.3,0-0.45c0.04-0.08,0.08-0.08,0.12,0
	C24,11.04,24,11.24,24,11.44z"/>
<path class="st2" d="M23.88,12.87c0-0.11,0-0.22,0-0.34c0-0.08,0.02-0.15,0.12-0.14c0,0.16,0,0.32,0,0.48
	C23.96,12.95,23.92,12.95,23.88,12.87z"/>
<ellipse class="st3" cx="23.94" cy="10.66" rx="0.08" ry="0.25"/>
<path class="st4" d="M13.64,0c0,0.04,0,0.08,0,0.12c-0.12,0-0.24,0-0.36,0c-0.08-0.04-0.08-0.08,0-0.12C13.4,0,13.52,0,13.64,0z"/>
<path class="st5" d="M13.28,0c0,0.04,0,0.08,0,0.12c-0.12-0.05-0.3,0.11-0.36-0.12C13.04,0,13.16,0,13.28,0z"/>
<ellipse class="st6" cx="23.94" cy="13.05" rx="0.08" ry="0.25"/>
<path class="st7" d="M11.25,0c-0.06,0.23-0.24,0.07-0.36,0.12c-0.08-0.04-0.08-0.08,0-0.12C11.01,0,11.13,0,11.25,0z"/>
<path class="st8" d="M10.42,0.12c0-0.04,0-0.08,0-0.12c0.08,0,0.16,0,0.24,0c0.08,0.04,0.08,0.08,0,0.12
	C10.58,0.12,10.5,0.12,10.42,0.12z"/>
<ellipse class="st9" cx="10.78" cy="0.06" rx="0.17" ry="0.08"/>
<path class="st10" d="M10.3,19.9c0-0.06-0.02-0.13,0-0.18c0.04-0.07,0.17-0.13,0.02-0.21c-0.14-0.08-0.28-0.17-0.45-0.21
	c-0.57-0.14-1.1-0.37-1.63-0.65c-0.58-0.3-1.07-0.72-1.54-1.13C6.25,17.12,5.9,16.6,5.54,16.1c-0.15-0.22-0.39-0.42-0.37-0.74
	c0.18-0.2,0.39-0.12,0.61-0.07c0.29,0.07,0.59,0.07,0.88,0.02c0.27-0.03,0.54,0.06,0.82,0.03c0.65-0.07,1.09-0.46,1.11-1.01
	c0.02-0.56-0.31-0.9-0.99-1.03c-0.22-0.04-0.43-0.01-0.65-0.03c-0.82-0.15-1.52,0.2-2.23,0.5c-0.06-0.02-0.11-0.05-0.15-0.09
	c-0.3-0.66-0.07-1.38-0.26-2.05c-0.04-0.16-0.03-0.33-0.02-0.49c0.01-0.06,0.03-0.11,0.07-0.16c0.03-0.04,0.07-0.07,0.12-0.08
	c0.04-0.02,0.07,0,0.09,0.04c0.01-0.08-0.07-0.08-0.1-0.13c-0.06-0.09-0.06-0.19-0.08-0.29c-0.01-0.05-0.02-0.11-0.01-0.16
	c0.01-0.05,0.03-0.1,0.04-0.15c0.07-0.14,0.12-0.29,0.27-0.37C4.79,9.88,4.83,9.84,4.8,9.75C4.87,9.6,5,9.51,5.13,9.43
	C5.17,9.4,5.22,9.37,5.26,9.35c0.16-0.12,0.36-0.19,0.51-0.32c0.06-0.05,0.11-0.11,0.16-0.17c0.37-0.36,0.7-0.74,0.96-1.19
	c0.12-0.2,0.25-0.42,0.55-0.35c0.05,0.02,0.09,0.06,0.13,0.1c0.18,0.3,0.27,0.64,0.48,0.93c0.03,0.04,0.06,0.08,0.09,0.12
	c0.1,0.14,0.22,0.26,0.33,0.39c0.05,0.05,0.1,0.1,0.15,0.14C8.68,9.05,8.74,9.08,8.8,9.12c0.04,0.02,0.09,0.04,0.13,0.06
	c0.1,0.05,0.2,0.12,0.3,0.18C9.26,9.38,9.3,9.4,9.34,9.43c0.06,0.03,0.12,0.05,0.18,0.06c0.07,0.01,0.13,0.02,0.2,0.05
	c0.05,0.02,0.09,0.04,0.13,0.06c0.14,0.08,0.29,0,0.44,0c0.06,0,0.12,0,0.17,0c0.49,0.13,1,0.1,1.5,0.14
	c0.17,0.08,0.39,0.08,0.52,0.25c-0.34,0.83-0.23,1.7-0.25,2.55c-0.01,0.25,0.05,0.52-0.2,0.7c-0.05,0.02-0.1,0.05-0.15,0.07
	c-0.06,0.04-0.13,0.08-0.19,0.1c0,0-0.03,0.03-0.03,0.03s-0.05,0-0.05,0s0.03,0.03,0.03,0.03s0.02-0.04,0.02-0.05
	c0.04-0.02,0.08-0.03,0.12-0.04c0.05-0.01,0.1-0.01,0.15,0c0.06,0.03,0.1,0.06,0.14,0.11c0.24,0.66,0.18,1.33,0.09,2
	c-0.07,0.2-0.28,0.26-0.39,0.43c-0.1,0.38,0.41,0.4,0.41,0.72c0.06,1.26,0.15,2.52-0.05,3.77c-0.2,0.42-0.57,0.37-0.91,0.27
	C10.81,20.56,10.32,20.49,10.3,19.9z"/>
<path class="st11" d="M18.88,5.84c-0.01,0.2,0.08,0.36,0.24,0.48c0.04,0.03,0.05,0.05,0.04,0.08c-0.01,0.03-0.02,0.04-0.04,0.04
	c0.1,0.32,0.2,0.64,0.3,0.95c0,0.01,0.04,0,0.05,0c0.07,0.08,0.07,0.16,0,0.24c0,0.04,0,0.08,0,0.12c0.04,0.03,0.06,0.07,0.08,0.11
	c0.01,0.09-0.06,0.17-0.04,0.26c0.02,0.04,0.04,0.07,0.08,0.1c0.02,0.09-0.06,0.23,0.12,0.24c0.07,0.08,0.07,0.16,0,0.24
	c0,0.15,0,0.3,0,0.45c0,0.08,0.01,0.15,0.12,0.14c0.11,0.21,0.03,0.46,0.15,0.67c0.15,0.36,0.05,0.69-0.1,1.02
	c-0.03,0.05-0.07,0.09-0.12,0.12c-0.13,0.06-0.25,0.01-0.37-0.04c-0.04-0.02-0.08-0.04-0.12-0.07c-0.05-0.04-0.09-0.1-0.14-0.14
	c-0.06-0.04-0.12-0.06-0.18-0.07c-0.1-0.01-0.19-0.03-0.29-0.06c-0.14,0-0.27-0.01-0.4,0.04c-1.04,0.1-2.05-0.11-3.08-0.16
	c-0.25-0.01-0.51-0.09-0.71-0.28c-0.1-0.12-0.05-0.3-0.18-0.42c-0.87-0.81-1.22-1.9-1.54-2.99c-0.05-0.16,0.04-0.34-0.09-0.49
	c-0.05-0.06-0.05-0.13-0.05-0.21c-0.01,0.1,0.02,0.18,0.08,0.26c0.07,0.13,0.02,0.28,0.05,0.42C13,7.76,13.3,8.6,13.81,9.37
	c0.18,0.27,0.56,0.4,0.55,0.79c-0.17,0.19-0.38,0.18-0.59,0.13c-0.08-0.02-0.16-0.06-0.24-0.1c-0.08-0.03-0.14-0.08-0.21-0.13
	c-0.06-0.05-0.12-0.11-0.18-0.16c-0.07-0.05-0.14-0.1-0.21-0.13c-0.39-0.17-0.89-0.16-1.08-0.67c-0.22-0.45-0.03-0.9-0.03-1.35
	c0-1.39,0-2.78,0-4.17c0-0.24,0-0.48,0.03-0.71c0.04-0.24,0.16-0.42,0.42-0.41c0.65,0.02,1.3-0.08,1.95,0.05c0.08,0,0.16,0,0.24,0
	c0.03,0.04,0.07,0.07,0.11,0.09c0.11,0.03,0.19-0.04,0.28-0.06c0.08,0,0.15,0.03,0.2,0.09c0.02,0.03,0.05,0.06,0.09,0.07
	c0.06,0.01,0.11-0.03,0.17-0.02c0.04,0.01,0.07,0.04,0.09,0.07c0.08,0,0.12,0.04,0.12,0.12c0.04,0.11,0.08,0.02,0.12,0
	c0.09,0.02,0.23-0.06,0.24,0.12c0.04,0.04,0.08,0.04,0.12,0c0.08,0,0.12,0.04,0.12,0.12c0.04,0.04,0.08,0.04,0.12,0
	c0.29,0.13,0.57,0.29,0.83,0.48c0.36,0.32,0.78,0.59,0.95,1.07c0.01,0.02,0.01,0.04,0.02,0.06c0.01,0.01,0.03,0.03,0.04,0.04
	c0.02,0.01,0.04,0.01,0.06,0.02c0.19,0.06,0.16,0.26,0.24,0.39c0.03,0.05,0.05,0.1,0.12,0.09c0.12,0.09,0.04,0.32,0.24,0.36
	C18.78,5.69,18.7,5.83,18.88,5.84z"/>
<path class="st12" d="M19.35,10.6c0,0.12,0,0.24,0,0.36c0.04,0.04,0.07,0.08,0.08,0.13c0.01,0.16-0.04,0.33,0,0.49
	c0,0,0.03,0.04,0.03,0.04c0.04,0,0.07,0,0.11,0c0.04,0,0.08,0,0.13,0.01c0.04,0.03,0.07,0.06,0.09,0.11c0,0.05-0.01,0.1-0.01,0.16
	c-0.01,0.2,0,0.39-0.01,0.59c-0.05,0.14-0.05,0.29-0.1,0.43c-0.04,0.14,0.04,0.3-0.07,0.43c-0.18,0.01-0.1,0.15-0.12,0.24
	c0.07,0.08,0.07,0.16,0,0.24c-0.18,0.01-0.1,0.15-0.12,0.24c0.07,0.08,0.07,0.16,0,0.24c-0.04,0-0.08,0-0.12,0
	c-0.1-0.02-0.2-0.07-0.24-0.15c-0.38-0.74-1.02-0.93-1.78-0.86c-0.41,0-0.82-0.08-1.22,0.09c-0.44,0.19-0.71,0.49-0.68,0.99
	c0.03,0.49,0.37,0.72,0.8,0.82c0.28,0.07,0.58,0.13,0.87,0c0.09-0.02,0.17-0.02,0.26,0.01c0.37,0.11,0.73,0.03,1.08-0.05
	c0.18-0.04,0.36-0.15,0.55-0.02c-0.06,0.36-0.29,0.63-0.47,0.93c-0.38,0.62-0.8,1.23-1.38,1.68c-0.79,0.61-1.57,1.26-2.6,1.45
	c-0.09,0.02-0.18,0.13-0.31,0.11c-0.04-0.02-0.08-0.11-0.12,0c0.01,0.11-0.07,0.12-0.15,0.12c-0.13-0.01-0.25,0-0.21,0.18
	c0.04,0.14-0.13,0.18-0.12,0.3c-0.02,0.65-0.55,0.66-0.99,0.77c-0.2-0.02-0.42,0.03-0.56-0.18c0-1.35,0-2.7,0-4.05
	c0.01-0.02,0.02-0.05,0.03-0.07c0.14-0.15,0.41-0.29,0.05-0.5c-0.05-0.03-0.08-0.07-0.11-0.12c-0.02-0.06,0-0.11,0.04-0.15
	c0-0.65,0-1.29,0-1.94c0-0.09,0.04-0.21-0.12-0.21c-0.01-0.28,0.15-0.16,0.28-0.12c0.03,0.02,0.07,0.04,0.1,0.06
	c0,0,0.03,0.05,0.02,0.05c0,0,0.01-0.05,0.01-0.05c0,0-0.05,0-0.06,0c-0.04-0.02-0.07-0.05-0.11-0.07c-0.11-0.07-0.27,0.02-0.36-0.1
	c0-0.02-0.01-0.05,0-0.06c0.25-0.1,0.24-0.1,0.24-0.43c-0.01-0.79,0.01-1.58-0.01-2.36c-0.01-0.24,0.09-0.26,0.27-0.25
	c0.08,0.01,0.21,0.05,0.21-0.12c0-0.08,0.03-0.15,0.09-0.21c0.04-0.03,0.09-0.05,0.14-0.07c0.05-0.01,0.1-0.01,0.16-0.01
	c0.08,0,0.15,0.01,0.23,0.04c0.07,0.03,0.13,0.07,0.21,0.08c0.05,0,0.09,0.02,0.13,0.06c0.08,0,0.12,0.04,0.12,0.12
	c0.08,0.09,0.16,0.07,0.24,0c0.18,0.16,0.39,0.12,0.6,0.12c0.04-0.04,0.08-0.04,0.12,0c0.01,0.03,0.03,0.1,0.04,0.1
	c0.74,0.06,1.46,0.26,2.21,0.29c0.43,0.01,0.88,0.08,1.32,0.1c0.16,0.01,0.24-0.11,0.37-0.13c0.12-0.08,0.24-0.08,0.36,0
	c0.06,0.23,0.24,0.07,0.36,0.12C19.19,10.53,19.27,10.53,19.35,10.6z"/>
<path class="st13" d="M14.23,2.5c-0.63,0-1.26,0.01-1.89-0.01c-0.22-0.01-0.26,0.06-0.26,0.27c0.01,1.64,0.01,3.28,0,4.91
	c0,0.3,0.06,0.6-0.1,0.91C11.9,8.74,11.93,9,12.09,9.17c-0.06,0.07-0.13,0.08-0.21,0.05c-0.21-0.15-0.46-0.27-0.63-0.47
	c-0.05-0.06-0.08-0.14-0.14-0.2C11.05,8.5,11,8.44,10.96,8.37c-0.24-0.41-0.46-0.83-0.49-1.32c-0.05-0.16-0.12-0.31-0.11-0.48
	c0-0.04,0-0.07,0-0.11c0,0.03,0,0.07,0,0.1c-0.01,0.17,0.06,0.31,0.1,0.46c0.03,0.5,0.26,0.93,0.5,1.36
	c0.04,0.07,0.1,0.12,0.16,0.18c0.03,0.04,0.06,0.09,0.09,0.14c0.16,0.23,0.42,0.34,0.63,0.52c0.05,0.03,0.1,0.07,0.14,0.11
	c0.04,0.05,0.06,0.1,0.07,0.17c0,0.07-0.03,0.12-0.07,0.17c-0.7,0.26-1.39-0.08-2.08-0.06C9.74,9.55,9.56,9.5,9.39,9.58
	C9.33,9.59,9.27,9.57,9.23,9.53c-0.2,0.01-0.36-0.08-0.48-0.24C8.66,9.27,8.52,9.35,8.51,9.17C8.51,9.15,8.5,9.13,8.5,9.11
	C8.48,9.1,8.47,9.09,8.45,9.07C8.43,9.07,8.41,9.06,8.39,9.05c-0.2-0.11-0.36-0.27-0.48-0.48C7.68,8.25,7.43,7.94,7.44,7.51
	c0.03-0.03,0.05-0.06,0.05-0.1c0-0.01-0.02-0.02-0.05-0.02C7.37,7.4,7.26,7.34,7.23,7.43C6.88,8.34,6.62,8.59,6.01,9.05
	C5.99,9.06,5.97,9.07,5.95,9.07C5.94,9.09,5.92,9.1,5.91,9.12C5.9,9.13,5.9,9.15,5.89,9.17C5.78,9.44,5.54,9.49,5.3,9.53
	C5.25,9.7,5.14,9.78,4.97,9.77c-0.08,0-0.16,0.01-0.15,0.12c-0.16,0-0.11,0.12-0.12,0.21c-0.01,0.08-0.01,0.16-0.12,0.15
	c-0.06,0-0.07,0.02-0.04,0.07c0.02,0.03,0.03,0.05,0.04,0.05c0,0.04,0,0.08,0,0.12c-0.07,0.06-0.05,0.15-0.07,0.23
	c-0.02,0.06-0.04,0.12-0.05,0.18c0,0.02,0,0.04,0,0.06c0,0.04,0,0.08,0,0.12c-0.09,0.08-0.04,0.32-0.27,0.25
	c-0.05-0.04-0.08-0.08-0.11-0.13c-0.02-0.24-0.13-0.45-0.21-0.67c-0.05-0.2-0.02-0.37,0.12-0.52c0-0.2,0-0.4,0-0.6
	c-0.07-0.08-0.07-0.16,0-0.24c0.18-0.01,0.1-0.15,0.12-0.24c-0.07-0.08-0.07-0.16,0-0.24c0.18-0.01,0.1-0.15,0.12-0.24
	C4.19,8.43,4.18,8.41,4.19,8.38C4.2,8.35,4.21,8.34,4.22,8.34C4.4,8.33,4.33,8.19,4.34,8.1C4.31,8.07,4.3,8.05,4.31,8.02
	C4.32,8,4.33,7.98,4.34,7.98c0.18-0.01,0.1-0.15,0.12-0.24c0.18-0.01,0.1-0.15,0.12-0.24C4.55,7.48,4.53,7.45,4.55,7.43
	C4.56,7.4,4.57,7.39,4.58,7.39c0.29-0.31,0.39-0.72,0.59-1.07C5.22,6.24,5.26,6.16,5.3,6.08c0.2-0.04,0.12-0.27,0.24-0.36
	C5.78,5.66,5.77,5.4,5.89,5.24C6.02,5.23,6.1,5.13,6.12,5.03C6.16,4.89,6.23,4.8,6.37,4.77c0.02-0.01,0.04-0.01,0.06-0.02
	C6.44,4.73,6.46,4.72,6.47,4.7c0.01-0.02,0.01-0.04,0.02-0.06c0.42-0.61,1.04-0.96,1.66-1.3C8.41,3.2,8.66,2.98,8.99,2.98
	c0.04,0.04,0.08,0.04,0.12,0c0.14-0.23,0.36-0.25,0.6-0.24c0.04,0.01,0.08,0.11,0.12,0c0-0.08,0.04-0.12,0.12-0.12
	c0.05-0.06,0.12-0.09,0.2-0.09c0.09,0.02,0.18,0.09,0.28,0.06c0.04-0.02,0.08-0.05,0.11-0.09c1.13-0.23,2.28-0.07,3.42-0.11
	C14.06,2.38,14.21,2.3,14.23,2.5z"/>
<path class="st14" d="M12.56,20.49c0.21-0.19,0.51-0.21,0.74-0.36c0.09-0.06,0.19-0.11,0.21-0.24c0.04,0,0.08,0,0.12,0
	c0.08,0.07,0.16,0.09,0.24,0c0-0.08,0.04-0.12,0.12-0.12c0.05-0.06,0.12-0.1,0.2-0.1c0.1,0,0.18,0.07,0.28,0.06
	c0.05-0.02,0.08-0.04,0.11-0.08c0.64,0,1.27,0,1.91,0c0.15,0,0.3-0.01,0.44,0.01c0.05,0.02,0.09,0.04,0.13,0.07
	c0.08,0.07,0.18,0.06,0.27,0.07c0.04,0.02,0.08,0.05,0.11,0.08c0.02,0.03,0.05,0.06,0.09,0.07c0.06,0.01,0.11-0.03,0.17-0.02
	c0.04,0.01,0.07,0.04,0.09,0.07c0.15,0.21,0.42,0.15,0.61,0.3c0.21,0.17,0.47,0.28,0.7,0.42c0.04-0.04,0.08-0.04,0.12,0
	c0,0.08,0.04,0.12,0.12,0.12c0.04,0.08,0.08,0.16,0.12,0.24c-0.03,0.03-0.04,0.05-0.03,0.08c0.01,0.03,0.02,0.04,0.03,0.04
	c-0.52,0.51-1.15,0.86-1.76,1.24c-0.23,0.14-0.48,0.17-0.71,0.3c-0.22,0.13-0.45,0.26-0.68,0.35c-0.24,0.09-0.51,0.08-0.72,0.26
	c-0.5-0.01-0.96,0.18-1.44,0.26c-0.44,0.07-0.89,0.04-1.31,0.12c-0.26,0.05-0.52,0.1-0.78,0.1c-0.06,0-0.11-0.04-0.09-0.12
	c-0.23-0.18-0.25-0.43-0.26-0.69c-0.01-0.49-0.01-0.98,0-1.47C11.71,20.67,11.74,20.63,12.56,20.49z"/>
<path class="st15" d="M12.56,20.49c0.01,0.12-0.07,0.11-0.15,0.12c-0.44,0.03-0.44,0.03-0.44,0.48c0,0.87,0,1.74,0,2.61
	c-0.28,0-0.55,0-0.83,0c-1.4,0.01-2.69-0.38-3.92-1c-0.61-0.31-1.22-0.6-1.78-1.01c-0.17-0.12-0.27-0.33-0.49-0.37
	c0-0.08,0-0.16,0-0.24c0.09-0.12,0.32-0.04,0.36-0.24c0.04-0.05,0.08-0.05,0.12,0c0.58-0.31,1.2-0.56,1.84-0.71
	c0.18-0.04,0.34-0.19,0.54-0.13c0.06,0.06,0.14,0.06,0.21,0.06c0.1,0,0.2-0.01,0.3,0.01c-0.09-0.02-0.2,0.01-0.27-0.07
	C8.03,19.9,8.11,19.9,8.19,19.9c0.22,0,0.43,0,0.65,0c0.08,0,0.16,0,0.15-0.12c0.32,0,0.63,0.02,0.95-0.01
	c0.16-0.01,0.24,0.11,0.37,0.13c0.38,0.48,0.99,0.48,1.49,0.7c0.04,0.02,0.08-0.13,0.18-0.11C12.17,20.49,12.36,20.49,12.56,20.49z"
	/>
<path class="st16" d="M6.73,15.49c-0.15-0.06-0.23,0.12-0.36,0.12c-0.33,0-0.69,0.08-0.97-0.2c-0.07-0.07-0.15-0.02-0.22-0.04
	c-0.28-0.3-0.48-0.64-0.48-1.07c-0.11-0.2-0.08-0.4,0-0.6c0.14-0.01,0.19-0.13,0.27-0.21c0.21-0.2,0.44-0.32,0.73-0.41
	c0.27-0.08,0.48-0.14,0.74,0.01c0.14,0.07,0.35,0.01,0.53,0.01C7,13.15,7.02,13.2,7,13.26c-0.05,0.11-0.15,0.18-0.23,0.26
	c-0.57,0.53-0.6,0.81-0.15,1.46c0.08,0.11,0.16,0.22,0.17,0.36C6.79,15.39,6.76,15.44,6.73,15.49z"/>
<path class="st17" d="M18.88,15.13c-0.49,0.45-1.07,0.42-1.67,0.3c0,0,0-0.04,0-0.06c-0.1-0.16-0.04-0.32,0.06-0.44
	c0.4-0.5,0.34-0.98-0.05-1.45c-0.05-0.06-0.06-0.14-0.07-0.22c0.01-0.06,0.03-0.11,0.07-0.15c0.08,0,0.18,0.03,0.23-0.01
	c0.33-0.26,0.64-0.04,0.94,0.05c0.32,0.1,0.51,0.39,0.74,0.61c-0.09,0.21,0.18,0.33,0.12,0.53c0,0.04,0,0.08,0,0.12
	c0.04,0.03,0.05,0.05,0.04,0.08c-0.01,0.03-0.02,0.04-0.04,0.04c-0.18,0.01-0.1,0.15-0.12,0.24c0.04,0.03,0.05,0.05,0.04,0.08
	c-0.01,0.03-0.02,0.04-0.04,0.04c-0.07-0.01-0.11,0.03-0.12,0.09C18.99,15.06,18.99,15.14,18.88,15.13z"/>
<path class="st18" d="M3.99,10.01c-0.01,0.17,0.01,0.34,0.12,0.48c0.09,0.09,0.05,0.2,0.06,0.3C4.15,10.89,4.08,11,4.14,11.11
	c0.02,0.03,0.05,0.06,0.08,0.09c0,0.04,0,0.08,0,0.12c0.04,0.03,0.06,0.06,0.09,0.09c0.02,0.03,0.04,0.06,0.07,0.08
	c0.03,0.02,0.06,0.04,0.08,0.06c0,0.3,0.03,0.6-0.01,0.89c-0.05,0.43,0.19,0.83,0.13,1.26c-0.04,0-0.08,0-0.12,0
	c-0.04-0.03-0.05-0.05-0.04-0.08c0.01-0.03,0.02-0.04,0.04-0.04c-0.05-0.12,0.11-0.3-0.12-0.36c-0.08-0.12-0.09-0.24,0-0.36
	c0-0.31,0-0.62,0-0.93c0-0.08-0.01-0.16-0.12-0.15c-0.04,0.08-0.08,0.08-0.12,0c-0.55-0.01-0.65-0.1-0.71-0.63
	c-0.01-0.09,0.04-0.21-0.12-0.21c-0.03-0.03-0.04-0.05-0.03-0.08c0.01-0.03,0.02-0.04,0.03-0.04c0.11,0.01,0.12-0.07,0.12-0.15
	c-0.01-0.15,0.06-0.28,0.11-0.42C3.58,9.99,3.78,10.01,3.99,10.01z"/>
<path class="st19" d="M19.71,11.08c-0.09-0.37,0.18-0.7,0.12-1.07c0.16-0.12,0.32-0.09,0.48,0c0.12,0.16,0.24,0.32,0.36,0.48
	c0.09,0.28,0.09,0.56,0,0.83c-0.03,0.01-0.09,0.02-0.1,0.04c-0.1,0.39-0.38,0.48-0.74,0.44c-0.02-0.02-0.04-0.04-0.05-0.06
	c-0.06-0.17-0.17-0.33-0.15-0.52C19.64,11.16,19.67,11.12,19.71,11.08z"/>
<path class="st20" d="M20.31,10.01c-0.16,0-0.32,0-0.48,0c0-0.24,0-0.48,0-0.71c0.05-0.15-0.09-0.33,0.08-0.46
	c0.1,0.14,0.03,0.3,0.04,0.45C19.96,9.74,19.95,9.74,20.31,10.01z"/>
<path class="st21" d="M19.71,12.51c0-0.24,0-0.48,0-0.71c0.04-0.08,0.08-0.08,0.12,0c0,0.31,0,0.62,0,0.93
	c0,0.08-0.01,0.16-0.12,0.15c-0.02-0.02-0.03-0.04-0.05-0.06C19.66,12.7,19.62,12.6,19.71,12.51z"/>
<path class="st22" d="M16.97,19.78c-0.11,0-0.22,0-0.34,0c-0.08,0-0.15-0.02-0.14-0.12c0.14-0.13,0.34,0.01,0.48-0.12
	c0.13,0.05,0.23,0.17,0.4,0.12c0.04-0.01,0.09,0.05,0.08,0.11C17.29,19.88,17.13,19.91,16.97,19.78z"/>
<path class="st23" d="M20.66,11.32c0-0.28,0-0.56,0-0.83c0-0.06,0.06-0.13,0.07-0.1C20.84,10.64,20.79,11.11,20.66,11.32z"/>
<path class="st22" d="M8.58,19.78c-0.12,0-0.23,0-0.35,0c-0.02,0-0.05-0.04-0.07-0.07c0.01-0.01,0.03-0.04,0.04-0.04
	c0.25,0,0.5,0,0.74,0.01c0.01,0,0.03,0.02,0.04,0.04c0.02,0.06,0,0.06-0.06,0.06C8.82,19.77,8.7,19.78,8.58,19.78z"/>
<path class="st24" d="M4.1,11.79c0.04,0,0.08,0,0.12,0c-0.04,0.23,0.09,0.48-0.08,0.69C4.06,12.26,4.13,12.02,4.1,11.79z"/>
<path class="st25" d="M3.27,10.84c0,0.04,0,0.08,0,0.12c0,0.04,0.01,0.08,0,0.12c-0.01,0.03-0.02,0.07-0.04,0.1
	c-0.03-0.01-0.08-0.03-0.08-0.04c-0.01-0.18,0-0.35,0-0.53c0-0.06,0.01-0.12,0.08-0.09c0.03,0.01,0.03,0.1,0.04,0.15
	C3.28,10.72,3.27,10.78,3.27,10.84z"/>
<path class="st26" d="M8.04,20.01c0.11,0.02,0.32-0.03,0.31,0.03c-0.01,0.18-0.19,0.07-0.29,0.08c-0.09,0.01-0.24,0.08-0.26-0.11
	C7.88,20.01,7.96,20.01,8.04,20.01z"/>
<path class="st18" d="M4.7,13.7c0,0.2,0,0.4,0,0.6c-0.04,0-0.08,0-0.12,0c-0.07-0.08-0.07-0.16,0-0.24c0-0.12,0-0.24,0-0.36
	C4.62,13.7,4.66,13.7,4.7,13.7z"/>
<path class="st27" d="M4.58,14.06c0,0.08,0,0.16,0,0.24c-0.02,0.11,0.03,0.32-0.03,0.31c-0.18-0.01-0.07-0.19-0.08-0.29
	C4.46,14.23,4.39,14.07,4.58,14.06z"/>
<path class="st28" d="M13.99,19.66c-0.06,0.01-0.13-0.04-0.1-0.07c0.12-0.11,0.29-0.02,0.43-0.05c0.08-0.01,0.15,0.01,0.14,0.12
	C14.31,19.77,14.15,19.74,13.99,19.66z"/>
<path class="st29" d="M13.99,19.66c0.16,0,0.32,0,0.48,0c0.04,0,0.08,0,0.12,0c0,0.04,0,0.08,0,0.12c-0.12,0.08-0.24,0.08-0.36,0
	c-0.08,0-0.16,0-0.24,0C13.99,19.74,13.99,19.7,13.99,19.66z"/>
<path class="st30" d="M15.07,2.62c-0.08,0-0.16,0-0.24,0c-0.12,0.08-0.24,0.08-0.36,0c0-0.04,0-0.08,0-0.12c0.08,0,0.16,0,0.24,0
	c0.12-0.08,0.24-0.08,0.36,0C15.07,2.54,15.07,2.58,15.07,2.62z"/>
<path class="st31" d="M19.59,13.34c0-0.16,0-0.32,0-0.48c0.04-0.08,0.08-0.08,0.12,0c0,0.18,0,0.35,0,0.53
	c0,0.02-0.05,0.03-0.07,0.05C19.62,13.41,19.61,13.38,19.59,13.34z"/>
<path class="st32" d="M4.34,12.87c0,0.12,0,0.24,0,0.36c0,0.06,0.01,0.12,0,0.17c0,0.02-0.07,0.05-0.07,0.05
	C4.18,13.34,4.22,13.05,4.34,12.87z"/>
<path class="st33" d="M10.18,2.62c-0.08,0-0.16,0-0.24,0c0-0.04,0-0.08,0-0.12c0.12-0.08,0.24-0.08,0.36,0c0.08,0,0.16,0,0.24,0
	c0,0.04,0,0.08,0,0.12C10.42,2.7,10.3,2.71,10.18,2.62z"/>
<path class="st34" d="M16.97,19.78c0.16,0,0.32,0,0.48,0c0,0.04,0,0.08,0,0.12c-0.04,0-0.08,0-0.12,0c-0.12,0.08-0.24,0.08-0.36,0
	C16.97,19.86,16.97,19.82,16.97,19.78z"/>
<path class="st35" d="M16.97,19.54c0.01,0.1-0.06,0.12-0.14,0.12c-0.11,0-0.22,0-0.34,0c-0.01-0.1,0.06-0.12,0.14-0.12
	C16.75,19.54,16.86,19.54,16.97,19.54z"/>
<path class="st36" d="M19.47,7.86c0-0.04,0-0.08,0-0.12c0.04,0,0.08,0,0.12,0c0.08,0.12,0.08,0.24,0,0.36c0,0.04,0,0.08,0,0.12
	c-0.04,0-0.08,0-0.12,0C19.39,8.1,19.39,7.98,19.47,7.86z"/>
<path class="st37" d="M19.71,8.7c0-0.08,0-0.16,0-0.24c0-0.06-0.01-0.11,0-0.17c0-0.02,0.05-0.04,0.07-0.06
	c0.02,0.03,0.05,0.07,0.04,0.09C19.79,8.45,19.94,8.64,19.71,8.7z"/>
<path class="st38" d="M9.82,2.74c0.06,0,0.11-0.01,0.17,0c0.02,0,0.04,0.04,0.06,0.07c0,0-0.03,0.04-0.04,0.04
	C9.9,2.83,9.74,2.96,9.7,2.74C9.74,2.74,9.78,2.74,9.82,2.74z"/>
<path class="st39" d="M17.45,20.01c0-0.04,0-0.08,0-0.12c0.04,0,0.08,0,0.12,0c0.08-0.07,0.16-0.07,0.24,0c0,0.04,0,0.08,0,0.12
	c-0.04,0-0.08,0-0.12,0C17.61,20.09,17.53,20.08,17.45,20.01z"/>
<path class="st40" d="M15.42,2.74c-0.04,0-0.08,0-0.12,0c-0.08,0.07-0.16,0.07-0.24,0c0-0.04,0-0.08,0-0.12c0.04,0,0.08,0,0.12,0
	c0.08-0.07,0.16-0.07,0.24,0C15.42,2.66,15.42,2.7,15.42,2.74z"/>
<path class="st41" d="M13.87,19.9c0.06-0.01,0.12,0.06,0.1,0.07c-0.12,0.06-0.26,0.14-0.34-0.07C13.71,19.9,13.79,19.9,13.87,19.9z"
	/>
<path class="st42" d="M15.42,2.62c-0.08,0-0.16,0-0.24,0c0.07-0.21,0.22-0.13,0.34-0.07C15.54,2.56,15.48,2.63,15.42,2.62z"/>
<path class="st43" d="M15.07,2.5c-0.12,0-0.24,0-0.36,0C14.83,2.34,14.95,2.34,15.07,2.5z"/>
<path class="st44" d="M10.3,2.5c-0.12,0-0.24,0-0.36,0C10.06,2.34,10.18,2.34,10.3,2.5z"/>
<path class="st45" d="M19.47,7.62c0-0.08,0-0.16,0-0.24c-0.01-0.06,0.06-0.12,0.07-0.1C19.6,7.41,19.68,7.55,19.47,7.62z"/>
<path class="st46" d="M19.47,13.82c0-0.08,0-0.16,0-0.24c0.21,0.07,0.13,0.22,0.07,0.34C19.53,13.94,19.47,13.88,19.47,13.82z"/>
<path class="st47" d="M4.1,8.7c0,0.08,0,0.16,0,0.24C3.89,8.86,3.97,8.72,4.04,8.6C4.05,8.58,4.11,8.64,4.1,8.7z"/>
<path class="st48" d="M19.59,8.1c0-0.12,0-0.24,0-0.36C19.76,7.86,19.76,7.98,19.59,8.1z"/>
<path class="st49" d="M4.46,13.58c0,0.04,0,0.08,0,0.12c0,0.06,0.01,0.11,0,0.17c0,0.02-0.04,0.04-0.07,0.06
	c0,0-0.04-0.03-0.04-0.04C4.37,13.78,4.24,13.62,4.46,13.58z"/>
<path class="st50" d="M3.99,9.17c0,0.08,0,0.16,0,0.24C3.77,9.34,3.85,9.2,3.92,9.07C3.93,9.05,3.99,9.12,3.99,9.17z"/>
<path class="st22" d="M5.42,20.85c-0.04,0-0.08,0-0.12,0c-0.06,0.01-0.1-0.01-0.1-0.07c0-0.02,0.05-0.04,0.09-0.04
	C5.36,20.72,5.42,20.75,5.42,20.85z"/>
<path class="st51" d="M15.66,2.86c0.01,0.1-0.05,0.12-0.13,0.12c-0.03,0-0.09-0.03-0.09-0.04c0-0.06,0.04-0.08,0.1-0.07
	C15.58,2.86,15.62,2.86,15.66,2.86z"/>
<path class="st22" d="M17.81,19.9c-0.08,0-0.16,0-0.24,0c-0.01-0.11,0.07-0.13,0.15-0.12C17.77,19.79,17.82,19.82,17.81,19.9z"/>
<path class="st52" d="M6.49,4.77c0,0.06-0.01,0.11-0.08,0.09c-0.02,0-0.03-0.06-0.04-0.09c0-0.08,0.04-0.12,0.12-0.12
	C6.52,4.67,6.53,4.7,6.52,4.73C6.51,4.75,6.5,4.77,6.49,4.77z"/>
<path class="st53" d="M18.16,4.77c0,0.06-0.01,0.11-0.08,0.09c-0.02,0-0.03-0.06-0.04-0.09C18.01,4.74,18,4.71,18.01,4.69
	c0.01-0.03,0.02-0.04,0.03-0.04C18.13,4.64,18.17,4.68,18.16,4.77z"/>
<path class="st54" d="M13.99,19.3c-0.06,0.01-0.1-0.01-0.1-0.07c0-0.02,0.05-0.04,0.09-0.04c0.08-0.01,0.14,0.02,0.13,0.12
	C14.07,19.3,14.03,19.3,13.99,19.3z"/>
<path class="st55" d="M19.12,14.89c0-0.04,0-0.08,0-0.12c0.1-0.01,0.12,0.05,0.12,0.13c0,0.03-0.03,0.09-0.04,0.09
	C19.13,14.99,19.11,14.95,19.12,14.89z"/>
<path class="st56" d="M19.23,14.53c0-0.04,0-0.08,0-0.12c0.1-0.01,0.12,0.05,0.12,0.13c0,0.03-0.03,0.09-0.04,0.09
	C19.25,14.64,19.23,14.59,19.23,14.53z"/>
<path class="st57" d="M19.12,6.43c0-0.04,0-0.08,0-0.12c-0.01-0.06,0.01-0.1,0.07-0.1c0.02,0,0.04,0.05,0.04,0.09
	C19.24,6.38,19.21,6.44,19.12,6.43z"/>
<path class="st58" d="M19.35,14.3c0-0.08,0-0.16,0-0.24c0.11-0.01,0.13,0.07,0.12,0.15C19.46,14.27,19.43,14.31,19.35,14.3z"/>
<path class="st47" d="M4.58,7.39c0,0.04,0,0.08,0,0.12c-0.1,0.01-0.12-0.05-0.12-0.13c0-0.03,0.03-0.09,0.04-0.09
	C4.57,7.28,4.59,7.33,4.58,7.39z"/>
<path class="st59" d="M4.34,7.98c0,0.04,0,0.08,0,0.12c-0.1,0.01-0.12-0.05-0.12-0.13c0-0.03,0.03-0.09,0.04-0.09
	C4.33,7.88,4.35,7.92,4.34,7.98z"/>
<path class="st44" d="M4.22,8.34c0,0.04,0,0.08,0,0.12C4.13,8.46,4.1,8.41,4.11,8.32c0-0.03,0.03-0.09,0.04-0.09
	C4.21,8.24,4.23,8.28,4.22,8.34z"/>
<path class="st60" d="M4.41,7.74C4.39,7.72,4.35,7.69,4.36,7.67c0.01-0.05,0.05-0.05,0.07-0.02c0.02,0.03,0.02,0.06,0.03,0.09
	C4.44,7.74,4.43,7.74,4.41,7.74z"/>
<path class="st61" d="M5.24,6.08C5.22,6.05,5.19,6.02,5.19,6.01c0.01-0.05,0.05-0.05,0.07-0.02C5.28,6.01,5.29,6.04,5.3,6.08
	C5.28,6.08,5.26,6.08,5.24,6.08z"/>
<path class="st62" d="M18.95,5.73c0.01,0.01,0.04,0.03,0.04,0.04c-0.01,0.03-0.03,0.06-0.05,0.07c-0.05,0.02-0.07,0-0.05-0.05
	C18.89,5.76,18.92,5.75,18.95,5.73z"/>
<path class="st61" d="M5.48,5.72C5.46,5.69,5.42,5.67,5.43,5.65C5.44,5.6,5.48,5.6,5.5,5.63c0.02,0.03,0.02,0.06,0.03,0.09
	C5.52,5.72,5.5,5.72,5.48,5.72z"/>
<path class="st63" d="M18.83,5.49c0.01,0.01,0.04,0.03,0.04,0.04c-0.01,0.03-0.03,0.06-0.05,0.07c-0.05,0.02-0.07,0-0.05-0.05
	C18.77,5.52,18.8,5.51,18.83,5.49z"/>
<path class="st64" d="M18.59,5.13c0.01,0.01,0.04,0.03,0.04,0.04c-0.01,0.03-0.03,0.06-0.05,0.07c-0.05,0.02-0.07,0-0.05-0.05
	C18.53,5.17,18.57,5.15,18.59,5.13z"/>
<path class="st65" d="M5.84,5.24C5.82,5.22,5.78,5.19,5.79,5.17C5.8,5.13,5.84,5.12,5.86,5.15c0.02,0.03,0.02,0.06,0.03,0.09
	C5.87,5.24,5.86,5.24,5.84,5.24z"/>
<path class="st57" d="M17.16,3.46C17.17,3.48,17.2,3.5,17.2,3.5c-0.01,0.03-0.03,0.06-0.05,0.07c-0.05,0.02-0.07,0-0.05-0.05
	C17.1,3.5,17.14,3.48,17.16,3.46z"/>
<path class="st66" d="M16.26,3.1c0,0.06-0.01,0.11-0.08,0.09c-0.02,0-0.03-0.06-0.04-0.09C16.18,3.1,16.22,3.1,16.26,3.1z"/>
<path class="st67" d="M16.02,2.98c0,0.06-0.01,0.11-0.08,0.09c-0.02,0-0.03-0.06-0.04-0.09C15.94,2.98,15.98,2.98,16.02,2.98z"/>
<path class="st68" d="M9.11,2.98c0,0.06-0.01,0.11-0.08,0.09C9.01,3.07,9,3.01,8.99,2.98C9.03,2.98,9.07,2.98,9.11,2.98z"/>
<path class="st69" d="M19.23,20.73c-0.04,0-0.08,0-0.12,0c0-0.06,0.01-0.11,0.08-0.09C19.21,20.64,19.22,20.7,19.23,20.73z"/>
<path class="st70" d="M19.42,20.74c0.01,0.01,0.04,0.03,0.04,0.04c-0.01,0.03-0.03,0.06-0.05,0.07c-0.05,0.02-0.07,0-0.05-0.05
	C19.37,20.77,19.4,20.76,19.42,20.74z"/>
<path class="st71" d="M4.89,21.09c-0.02-0.02-0.06-0.05-0.05-0.07c0.01-0.05,0.05-0.05,0.07-0.02c0.02,0.03,0.02,0.06,0.03,0.09
	C4.92,21.09,4.9,21.09,4.89,21.09z"/>
<path class="st72" d="M19.47,21.21c-0.06,0-0.11-0.01-0.09-0.08c0-0.02,0.06-0.03,0.09-0.04C19.47,21.13,19.47,21.17,19.47,21.21z"
	/>
<path class="st73" d="M6.96,13.22c0-0.04,0-0.08,0-0.12c0.2,0.06,0.33-0.19,0.54-0.12c0.18,0.05,0.35,0.11,0.54,0.14
	c0.45,0.07,0.82,0.61,0.82,1.09c0,0.29,0.01,0.56-0.18,0.81c-0.22,0.28-0.53,0.45-0.84,0.56c-0.23,0.08-0.54,0.11-0.79-0.06
	c-0.11-0.08-0.23-0.02-0.34-0.04c0-0.04,0-0.08,0-0.12c0.01-0.08,0.02-0.16,0.07-0.22c0.51-0.49,0.6-1.01,0.16-1.6
	C6.89,13.46,6.89,13.33,6.96,13.22z"/>
<path class="st74" d="M8.51,11.68c0.08-0.04,0.16-0.08,0.24-0.12c0.16,0.04,0.32,0.04,0.48,0c0.12,0.08,0.24,0.16,0.36,0.24
	c0.08,0.12,0.08,0.24,0,0.36c-0.12,0.08-0.24,0.16-0.36,0.24c-0.16,0-0.32,0-0.48,0c-0.08-0.04-0.16-0.08-0.24-0.12
	c-0.04-0.03-0.06-0.07-0.08-0.12c0.01-0.12,0.01-0.24,0-0.36C8.45,11.75,8.48,11.71,8.51,11.68z"/>
<path class="st75" d="M11.97,16.44c-0.49-0.13-0.56-0.21-0.6-0.71c0.2-0.09,0.4-0.09,0.6,0C12.19,15.96,12.19,16.2,11.97,16.44z"/>
<path class="st13" d="M11.97,9.89c-0.3,0-0.6-0.03-0.89,0.01c-0.28,0.04-0.51-0.19-0.78-0.13c-0.04-0.07-0.03-0.12,0.03-0.16
	c0.55-0.02,1.09,0.11,1.63,0.18C11.97,9.82,11.97,9.86,11.97,9.89z"/>
<path class="st76" d="M8.75,12.39c0.15-0.16,0.33-0.16,0.48,0C9.08,12.55,8.9,12.55,8.75,12.39z"/>
<path class="st77" d="M4.22,11.56c0-0.08,0-0.16,0-0.24c0.11,0.01,0.11-0.07,0.12-0.15c0.01-0.06,0.04-0.1,0.12-0.09
	c0,0.16,0,0.32,0,0.48c-0.08,0.04-0.16,0.08-0.24,0.12c-0.03-0.03-0.04-0.05-0.03-0.08C4.2,11.57,4.21,11.56,4.22,11.56z"/>
<path class="st78" d="M11.73,13.22c0.11,0,0.22,0,0.34,0c0.08,0,0.15,0.02,0.14,0.12c0.04,0.03,0.05,0.05,0.04,0.08
	c-0.01,0.03-0.03,0.04-0.04,0.04c-0.04-0.02-0.09-0.05-0.13-0.07c-0.11-0.07-0.2-0.09-0.22,0.07c-0.04,0-0.08,0-0.12,0
	c-0.04-0.03-0.05-0.05-0.04-0.08c0.01-0.03,0.03-0.04,0.04-0.04C11.73,13.3,11.73,13.26,11.73,13.22z"/>
<path class="st79" d="M9.23,11.56c-0.15,0.16-0.33,0.16-0.48,0C8.91,11.43,9.07,11.43,9.23,11.56z"/>
<path class="st80" d="M9.58,12.15c0-0.12,0-0.24,0-0.36c0-0.06,0.06-0.13,0.07-0.09c0.08,0.17,0.08,0.37,0,0.54
	C9.64,12.28,9.58,12.21,9.58,12.15z"/>
<path class="st81" d="M8.51,12.15c0,0.04,0,0.08,0,0.12c-0.04,0-0.08,0-0.12,0c-0.09-0.2-0.09-0.4,0-0.6c0.04,0,0.08,0,0.12,0
	c0,0.04,0,0.08,0,0.12C8.6,11.91,8.6,12.03,8.51,12.15z"/>
<path class="st82" d="M8.39,11.68c0,0.2,0,0.4,0,0.6C8.22,12.08,8.22,11.87,8.39,11.68z"/>
<path class="st83" d="M4.58,10.84c0.19,0.02,0.11,0.17,0.11,0.26c0,0.11,0.03,0.32-0.04,0.31c-0.16-0.03-0.05-0.22-0.07-0.33
	c-0.01-0.04,0-0.08,0-0.11c-0.03-0.03-0.04-0.05-0.03-0.08C4.56,10.85,4.57,10.84,4.58,10.84z"/>
<path class="st84" d="M11.97,15.73c-0.2,0-0.4,0-0.6,0c-0.01-0.11,0.06-0.12,0.14-0.12c0.15,0,0.3,0,0.45,0
	C11.97,15.65,11.97,15.69,11.97,15.73z"/>
<path class="st13" d="M12.56,9.89c0,0.08-0.04,0.12-0.12,0.12c-0.11,0-0.22,0-0.34,0c-0.08,0-0.15-0.02-0.14-0.12
	C12.17,9.7,12.36,9.69,12.56,9.89z"/>
<path class="st85" d="M10.3,9.65c0,0.04,0,0.08,0,0.12c-0.04,0-0.08,0-0.12,0c-0.16,0.09-0.32,0.09-0.48,0c0-0.04,0-0.08,0-0.12
	c0.02-0.02,0.03-0.04,0.05-0.06c0.07-0.05,0.16-0.05,0.24-0.04C10.09,9.59,10.21,9.57,10.3,9.65z"/>
<path class="st86" d="M9.7,9.77c0.16,0,0.32,0,0.48,0C10.03,9.93,9.85,9.93,9.7,9.77z"/>
<path class="st87" d="M9.23,9.53c0.04,0,0.08,0,0.12,0c0.11-0.09,0.23-0.06,0.34-0.04c0.05,0.05,0.06,0.1,0.01,0.16
	c-0.08,0-0.16,0-0.24,0c-0.08,0.07-0.16,0.07-0.24,0C9.23,9.61,9.23,9.57,9.23,9.53z"/>
<path class="st88" d="M4.58,10.36C4.35,10.3,4.5,10.12,4.47,9.99C4.46,9.97,4.5,9.9,4.51,9.9c0.06,0.01,0.08,0.06,0.07,0.11
	c0,0.08,0,0.15,0,0.23C4.58,10.29,4.58,10.32,4.58,10.36z"/>
<path class="st77" d="M4.58,10.84c0,0.04,0,0.08,0,0.12c-0.04,0-0.08,0-0.12,0c-0.07-0.08-0.07-0.16,0-0.24
	c0.02-0.09-0.06-0.23,0.12-0.24C4.58,10.6,4.58,10.72,4.58,10.84z"/>
<path class="st89" d="M11.61,13.58c0.02,0.12-0.17,0.15-0.13,0.29c0.01,0.03-0.09,0.09-0.1,0.02c-0.01-0.1-0.12-0.27,0.1-0.3
	C11.53,13.53,11.57,13.53,11.61,13.58z"/>
<path class="st90" d="M9.23,9.65c0.08,0,0.16,0,0.24,0C9.39,9.86,9.25,9.78,9.13,9.72C9.11,9.71,9.17,9.64,9.23,9.65z"/>
<path class="st91" d="M7.44,7.39c-0.01-0.06,0.01-0.1,0.07-0.1c0.02,0,0.04,0.05,0.04,0.09c0.01,0.08-0.02,0.14-0.12,0.13
	C7.44,7.47,7.44,7.43,7.44,7.39z"/>
<path class="st92" d="M8.39,9.05C8.39,9,8.4,8.94,8.47,8.96c0.02,0,0.03,0.06,0.04,0.09c0.03,0.03,0.04,0.05,0.03,0.08
	C8.53,9.16,8.52,9.17,8.51,9.17C8.43,9.18,8.39,9.14,8.39,9.05z"/>
<path class="st93" d="M5.89,9.05C5.89,9,5.9,8.94,5.97,8.96c0.02,0,0.03,0.06,0.04,0.09c0,0.08-0.04,0.12-0.12,0.12
	C5.86,9.15,5.85,9.12,5.86,9.09C5.87,9.07,5.88,9.05,5.89,9.05z"/>
<path class="st94" d="M11.61,13.58c-0.04,0-0.08,0-0.12,0c0-0.08,0.04-0.12,0.12-0.12C11.61,13.5,11.61,13.54,11.61,13.58z"/>
<path class="st95" d="M11.73,13.34c0,0.04,0,0.08,0,0.12c-0.04,0-0.08,0-0.12,0C11.61,13.38,11.65,13.34,11.73,13.34z"/>
<path class="st96" d="M4.93,9.96C4.92,9.97,4.9,10,4.89,9.99C4.87,9.98,4.83,9.96,4.82,9.94c-0.02-0.05,0-0.07,0.05-0.05
	C4.9,9.9,4.91,9.93,4.93,9.96z"/>
<path class="st97" d="M15.63,7.03c0.07,0,0.13,0,0.15,0.11C15.86,7.5,16,7.85,16.17,8.17c0.33,0.64,0.67,1.28,1.25,1.75
	c0.12,0.1,0.22,0.23,0.34,0.33c0.04,0.04,0.06,0.06,0.01,0.08c-0.03,0.02-0.09,0.04-0.11,0.02c-0.24-0.19-0.55-0.3-0.72-0.56
	c-0.39-0.61-0.91-1.14-1.06-1.88c-0.22-0.18-0.16-0.49-0.33-0.7C15.51,7.16,15.52,7.06,15.63,7.03z"/>
<path class="st98" d="M14.47,10.13c-0.04,0-0.08,0-0.12,0c-0.16-0.33-0.49-0.52-0.68-0.84c-0.36-0.59-0.75-1.46-0.87-2.13
	c-0.02-0.09-0.08-0.17-0.12-0.25c0.04-0.08,0.08-0.08,0.12,0c0.03,0.01,0.09,0.02,0.1,0.04c0.11,0.9,0.54,1.67,1.01,2.42
	c0.17,0.27,0.44,0.48,0.66,0.72c0,0-0.02,0.03-0.04,0.04C14.51,10.13,14.49,10.13,14.47,10.13z"/>
<path class="st99" d="M11.85,9.17c0.08,0,0.16,0,0.24,0c0.25,0.26,0.59,0.31,0.92,0.36c0.08,0.01,0.16,0.01,0.15,0.12
	c-0.08,0.14-0.23,0.11-0.35,0.16c-0.03,0-0.05,0.01-0.08,0.01c-0.06,0-0.11,0-0.17,0c-0.24-0.01-0.54,0.09-0.59-0.3
	c0-0.04,0-0.08,0-0.12c-0.04-0.04-0.08-0.08-0.12-0.12c-0.04-0.03-0.05-0.05-0.04-0.08C11.82,9.19,11.84,9.17,11.85,9.17z"/>
<path class="st100" d="M19.35,11.08c0-0.04,0-0.08,0-0.12c0.04,0,0.08,0,0.12,0c0.1,0.17,0.17,0.34,0.15,0.54
	c-0.03,0.09-0.08,0.17-0.09,0.27c-0.02,0.1-0.05,0.18-0.18,0.14C19.26,11.64,19.26,11.36,19.35,11.08z"/>
<path class="st101" d="M12.68,6.09c0,0.1-0.01,0.19,0,0.29c0.01,0.06-0.01,0.08-0.06,0.06c-0.03-0.02-0.06-0.06-0.06-0.09
	c-0.01-0.15-0.01-0.31,0-0.46c0-0.05,0.03-0.1,0.05-0.15c0.09,0.03,0.07,0.12,0.07,0.18C12.68,5.97,12.68,6.03,12.68,6.09z"/>
<path class="st102" d="M19.47,11.56c0-0.2,0-0.4,0-0.6c0-0.06,0.01-0.11,0.08-0.09c0.02,0.01,0.03,0.06,0.04,0.1
	c0.01,0.04,0,0.08,0,0.12c0.09,0.14,0.14,0.29,0.05,0.46C19.59,11.6,19.53,11.6,19.47,11.56z"/>
<path class="st103" d="M19.59,11.56c0-0.16,0-0.32,0-0.48c0.04,0,0.08,0,0.12,0c0,0.04,0,0.08,0,0.12c0.09,0.16,0.09,0.32,0,0.48
	c-0.04,0-0.08,0-0.12,0c-0.04-0.03-0.05-0.05-0.04-0.08C19.57,11.57,19.58,11.56,19.59,11.56z"/>
<path class="st104" d="M13.04,9.89c-0.08,0-0.16,0-0.24,0c-0.08-0.04-0.08-0.08,0-0.12c0.16-0.09,0.32-0.09,0.48,0
	c0.08,0,0.12,0.04,0.12,0.12c-0.04,0-0.08,0-0.12,0C13.2,9.96,13.12,9.96,13.04,9.89z"/>
<path class="st105" d="M13.28,9.77c-0.16,0-0.32,0-0.48,0c0.06-0.23,0.24-0.07,0.36-0.12C13.24,9.65,13.28,9.69,13.28,9.77z"/>
<path class="st106" d="M14.47,2.62c0.12,0,0.24,0,0.36,0c-0.14,0.13-0.35,0.17-0.45,0.07C14.34,2.66,14.41,2.62,14.47,2.62z"/>
<path class="st107" d="M19.47,7.86c0,0.12,0,0.24,0,0.36c0.01,0.06-0.04,0.13-0.07,0.1C19.3,8.21,19.34,8,19.47,7.86z"/>
<path class="st108" d="M12.8,6.91c-0.04,0-0.08,0-0.12,0c0-0.16,0-0.32,0-0.48c0.1-0.01,0.12,0.06,0.12,0.14
	C12.8,6.69,12.8,6.8,12.8,6.91z"/>
<path class="st106" d="M15.07,2.74c0.08,0,0.16,0,0.24,0c-0.07,0.21-0.22,0.13-0.34,0.07C14.94,2.8,15.01,2.73,15.07,2.74z"/>
<path class="st109" d="M18.76,10.48c-0.12,0-0.24,0-0.36,0C18.52,10.32,18.64,10.32,18.76,10.48z"/>
<path class="st110" d="M13.75,10.01c-0.07,0.21-0.22,0.13-0.34,0.07c-0.02-0.01,0.04-0.07,0.1-0.07
	C13.6,10.01,13.68,10.01,13.75,10.01z"/>
<path class="st111" d="M19.35,10.6c-0.08,0-0.16,0-0.24,0c-0.01-0.11,0.07-0.13,0.15-0.12C19.32,10.49,19.37,10.53,19.35,10.6z"/>
<path class="st112" d="M18.04,4.65c0,0.04,0,0.08,0,0.12c-0.06,0-0.11-0.01-0.09-0.08C17.95,4.67,18.01,4.66,18.04,4.65z"/>
<path class="st113" d="M17.21,13.1c0,0.04,0,0.08,0,0.12c-0.02,0.18-0.18,0.25-0.27,0.37c-0.3,0.39-0.41,0.8-0.09,1.24
	c0.12,0.16,0.23,0.32,0.12,0.53c0,0.02,0,0.06,0,0.06c-0.54,0.16-1.05,0.08-1.52-0.22c-0.21-0.13-0.37-0.35-0.37-0.61
	c0-0.15-0.1-0.27-0.08-0.41c0.04-0.18,0.1-0.36,0.19-0.51c0.09-0.15,0.21-0.29,0.35-0.38c0.13-0.08,0.28-0.16,0.45-0.2
	c0.28-0.07,0.52-0.22,0.8,0C16.89,13.16,17.07,13.1,17.21,13.1z"/>
<path class="st114" d="M16.97,15.37c-0.05-0.18-0.22-0.27-0.34-0.39c-0.25-0.26-0.33-0.58-0.24-0.9c0.09-0.32,0.23-0.64,0.53-0.84
	c0.07-0.05,0.19-0.01,0.29-0.01c0.44,0.26,0.65,0.63,0.6,1.14c-0.02,0.24-0.11,0.43-0.26,0.61c-0.11,0.13-0.28,0.21-0.34,0.39
	C17.13,15.37,17.05,15.37,16.97,15.37z"/>
<path class="st115" d="M15.42,11.79c0,0.12,0,0.24,0,0.36c-0.03,0.03-0.07,0.05-0.11,0.07c-0.04,0.03-0.07,0.06-0.1,0.09
	c-0.02,0.02-0.03,0.03-0.05,0.05c-0.05,0.05-0.11,0.08-0.18,0.09c-0.09,0-0.19,0.02-0.27-0.06c-0.08,0-0.12-0.04-0.12-0.12
	c-0.04-0.04-0.08-0.08-0.12-0.12c-0.17-0.21,0.05-0.33,0.12-0.48c0.04-0.04,0.08-0.08,0.12-0.12c0.12-0.08,0.24-0.08,0.36,0
	c0.04,0,0.08,0,0.12,0c0.04,0.04,0.08,0.08,0.12,0.12C15.34,11.71,15.38,11.76,15.42,11.79z"/>
<path class="st116" d="M11.97,16.44c0-0.24,0-0.48,0-0.71c0.16,0,0.31,0,0.47,0c0.23,0,0.32,0.11,0.23,0.31
	C12.53,16.33,12.3,16.48,11.97,16.44z"/>
<path class="st117" d="M11.97,9.53c0.21,0.24,0.21,0.24,0.71,0.24c0.04,0.03,0.05,0.05,0.04,0.08c-0.01,0.03-0.03,0.04-0.04,0.04
	c-0.04,0-0.08,0-0.12,0c-0.2,0-0.4,0-0.6,0c-0.01-0.03-0.03-0.1-0.04-0.1c-0.55,0.04-1.08-0.15-1.63-0.14c-0.12,0-0.24,0-0.36,0
	C9.89,9.6,9.82,9.58,9.78,9.52c-0.02-0.05,0-0.09,0.04-0.11c0.18-0.06,0.29,0.16,0.48,0.12c0.15-0.03,0.32-0.04,0.46,0
	c0.35,0.09,0.7,0.14,1.06,0.11C11.9,9.64,11.98,9.64,11.97,9.53z"/>
<path class="st118" d="M17.62,10.85c-0.2-0.06-0.43,0.08-0.63-0.09c0.21-0.09,0.42-0.04,0.63-0.03c0.21,0.01,0.44-0.09,0.64,0.07
	C18.06,10.89,17.84,10.81,17.62,10.85z"/>
<path class="st119" d="M19.35,11.08c0,0.28,0,0.56,0,0.83C19.19,11.66,19.19,11.33,19.35,11.08z"/>
<path class="st120" d="M16.22,10.6c0.15,0.02,0.36-0.01,0.35,0.04c-0.03,0.17-0.21,0.07-0.33,0.07c-0.11,0.01-0.33,0.04-0.32-0.03
	C15.96,10.47,16.17,10.73,16.22,10.6z"/>
<path class="st121" d="M15.66,12.03c0,0.06,0,0.12,0,0.18c0,0.01-0.03,0.04-0.04,0.04c-0.03-0.01-0.07-0.02-0.08-0.04
	c-0.01-0.06-0.01-0.12,0-0.18c0.02-0.11-0.03-0.33,0.04-0.32C15.73,11.74,15.64,11.92,15.66,12.03z"/>
<path class="st122" d="M14.59,11.68c-0.01,0.07,0.04,0.16-0.04,0.22c-0.1,0.07-0.08,0.17-0.08,0.26c-0.04,0-0.08,0-0.12,0
	c-0.08-0.12-0.08-0.24,0-0.36C14.43,11.75,14.51,11.71,14.59,11.68z"/>
<path class="st123" d="M19.23,10.86c-0.02,0.03-0.04,0.06-0.05,0.09c-0.09-0.13-0.22-0.12-0.36-0.12c-0.01,0-0.05-0.07-0.04-0.07
	c0.12-0.09,0.26-0.04,0.39-0.04C19.22,10.73,19.24,10.8,19.23,10.86z"/>
<path class="st119" d="M14.35,11.79c0,0.12,0,0.24,0,0.36c0,0.06-0.06,0.13-0.07,0.09c-0.08-0.17-0.08-0.37,0-0.54
	C14.29,11.66,14.35,11.74,14.35,11.79z"/>
<path class="st124" d="M19.71,11.68c0-0.16,0-0.32,0-0.48c0.11-0.01,0.12,0.06,0.12,0.14c0,0.15,0,0.3,0,0.45c-0.04,0-0.08,0-0.12,0
	C19.71,11.75,19.71,11.71,19.71,11.68z"/>
<path class="st125" d="M19.35,11.91c0.08,0,0.12-0.04,0.12-0.12c0.04-0.08,0.08-0.08,0.12,0c-0.01,0.07,0.04,0.16-0.04,0.21
	c-0.05,0.04-0.08,0.15-0.16,0.11C19.31,12.09,19.37,11.98,19.35,11.91z"/>
<path class="st122" d="M14.71,12.39c0.12,0,0.24,0,0.36,0c0.02-0.02,0.04-0.04,0.06-0.05c0.02,0.02,0.04,0.04,0.06,0.05
	C15.03,12.55,14.86,12.55,14.71,12.39z"/>
<path class="st0" d="M19.71,12.87c-0.04,0-0.08,0-0.12,0c0.05-0.12-0.11-0.3,0.12-0.36C19.71,12.63,19.71,12.75,19.71,12.87z"/>
<path class="st121" d="M14.96,12.63c0.01,0.01,0.06,0.03,0.11,0.06c-0.05,0.08-0.13,0.07-0.21,0.06c-0.05-0.01-0.1-0.04-0.15-0.06
	C14.76,12.61,14.84,12.63,14.96,12.63z"/>
<path class="st122" d="M15.07,11.56c-0.12,0-0.24,0-0.36,0C14.83,11.39,14.95,11.39,15.07,11.56z"/>
<path class="st126" d="M19.59,11.79c-0.04,0-0.08,0-0.12,0c0-0.08,0-0.16,0-0.24c0.04,0,0.08,0,0.12,0c0,0.04,0,0.08,0,0.12
	C19.59,11.71,19.59,11.75,19.59,11.79z"/>
<path class="st127" d="M13.04,9.89c0.08,0,0.16,0,0.24,0c0.01,0.11-0.07,0.13-0.15,0.12C13.07,10,13.03,9.96,13.04,9.89z"/>
<path class="st128" d="M12.55,13.87c0,0-0.02,0.06-0.03,0.06c-0.09-0.02-0.06-0.1-0.07-0.17c-0.01-0.06,0.01-0.08,0.06-0.05
	C12.55,13.73,12.58,13.77,12.55,13.87z"/>
<path class="st129" d="M12.32,13.46c0.18,0.01,0.1,0.15,0.12,0.24C12.27,13.69,12.34,13.55,12.32,13.46z"/>
<path class="st129" d="M12.21,13.46c0-0.04,0-0.08,0-0.12c0.08,0,0.12,0.04,0.12,0.12C12.29,13.46,12.25,13.46,12.21,13.46z"/>
<circle class="st13" cx="12.74" cy="9.83" r="0.08"/>
<path class="st122" d="M15.42,11.79c-0.08,0-0.12-0.04-0.12-0.12C15.39,11.67,15.43,11.71,15.42,11.79z"/>
<path class="st122" d="M15.3,12.27c0,0.08-0.04,0.12-0.12,0.12c-0.03-0.03-0.04-0.05-0.03-0.08c0.01-0.03,0.02-0.04,0.03-0.04
	c0.02-0.02,0.04-0.03,0.06-0.05C15.26,12.24,15.28,12.25,15.3,12.27z"/>
<path class="st122" d="M15.3,12.15c0.04,0,0.08,0,0.12,0c0,0.08-0.04,0.12-0.12,0.12c-0.03-0.03-0.04-0.05-0.03-0.08
	C15.28,12.16,15.29,12.15,15.3,12.15z"/>
<path class="st122" d="M14.47,12.15c0.08,0,0.12,0.04,0.12,0.12C14.51,12.27,14.47,12.23,14.47,12.15z"/>
<path class="st122" d="M14.71,11.56c0,0.08-0.04,0.12-0.12,0.12C14.59,11.59,14.63,11.55,14.71,11.56z"/>
<path class="st122" d="M15.3,11.68c-0.08,0-0.12-0.04-0.12-0.12C15.27,11.55,15.31,11.59,15.3,11.68z"/>
<path class="st130" d="M11.01,8.46c-0.27-0.09-0.29-0.36-0.39-0.57c-0.13-0.27-0.24-0.55-0.21-0.86c0.04-0.04,0.08-0.04,0.12,0
	c-0.01,0.44,0.23,0.8,0.41,1.17C10.99,8.29,11.01,8.36,11.01,8.46z"/>
<path class="st131" d="M11.85,9.17c0,0.04,0,0.08,0,0.12c-0.3-0.12-0.55-0.3-0.71-0.6c0.04-0.05,0.08-0.05,0.12,0
	C11.44,8.87,11.74,8.91,11.85,9.17z"/>
<path class="st132" d="M10.54,7.03c-0.04,0-0.08,0-0.12,0c-0.1,0.01-0.12-0.06-0.12-0.14c0-0.11,0-0.22,0-0.34
	c0.04-0.08,0.08-0.08,0.12,0c0.01,0.07-0.04,0.16,0.04,0.22C10.56,6.84,10.54,6.93,10.54,7.03z"/>
<path class="st77" d="M4.1,10.84c0-0.12,0-0.24,0-0.36c0.11-0.01,0.12,0.06,0.12,0.14c0,0.19,0,0.38,0,0.57c-0.04,0-0.08,0-0.12,0
	C4.02,11.08,4.02,10.96,4.1,10.84z"/>
<path class="st133" d="M9.82,9.41c0,0.04,0,0.08,0,0.12c-0.04,0.05-0.08,0.05-0.12,0c-0.12,0-0.24,0-0.36,0
	c-0.01-0.1,0.06-0.12,0.14-0.12C9.6,9.41,9.71,9.41,9.82,9.41z"/>
<path class="st134" d="M10.42,6.55c-0.04,0-0.08,0-0.12,0c0.05-0.15-0.1-0.33,0.08-0.46C10.47,6.24,10.39,6.4,10.42,6.55z"/>
<path class="st38" d="M10.18,2.62c0.12,0,0.24,0,0.36,0c0.06-0.01,0.13,0.04,0.1,0.07C10.53,2.79,10.32,2.75,10.18,2.62z"/>
<path class="st135" d="M4.46,10.72c0,0.08,0,0.16,0,0.24c-0.11,0.01-0.13-0.07-0.12-0.15C4.35,10.75,4.39,10.71,4.46,10.72z"/>
<path class="st91" d="M7.99,8.47C8,8.48,8.03,8.5,8.02,8.51C8.01,8.53,7.99,8.56,7.97,8.58c-0.05,0.02-0.07,0-0.05-0.05
	C7.93,8.5,7.96,8.49,7.99,8.47z"/>
<path class="st136" d="M11.13,8.58c-0.08,0-0.12-0.04-0.12-0.12C11.1,8.46,11.14,8.5,11.13,8.58z"/>
<path class="st137" d="M11.25,8.7c-0.04,0-0.08,0-0.12,0c0-0.04,0-0.08,0-0.12C11.22,8.57,11.26,8.61,11.25,8.7z"/>
<path class="st138" d="M5.89,9.05c0,0.04,0,0.08,0,0.12c-0.06,0-0.11-0.01-0.09-0.08C5.8,9.07,5.86,9.07,5.89,9.05z"/>
<path class="st139" d="M8.51,9.17c0-0.04,0-0.08,0-0.12c0.06,0,0.11,0.01,0.09,0.08C8.6,9.15,8.55,9.16,8.51,9.17z"/>
<path class="st88" d="M8.82,9.18C8.83,9.2,8.86,9.22,8.86,9.22C8.84,9.25,8.83,9.28,8.8,9.29c-0.05,0.02-0.07,0-0.05-0.05
	C8.76,9.22,8.8,9.2,8.82,9.18z"/>
<path class="st131" d="M11.85,9.29c0.08,0,0.12,0.04,0.12,0.12C11.89,9.41,11.85,9.37,11.85,9.29z"/>
<path class="st140" d="M5.24,9.53C5.22,9.51,5.19,9.48,5.19,9.46c0.01-0.05,0.05-0.05,0.07-0.02C5.28,9.47,5.29,9.5,5.3,9.53
	C5.28,9.53,5.26,9.53,5.24,9.53z"/>
<path class="st52" d="M6.49,4.77c0-0.04,0-0.08,0-0.12c0.06,0,0.11,0.01,0.09,0.08C6.58,4.74,6.52,4.75,6.49,4.77z"/>
<path class="st141" d="M14.23,19.78c0.12,0,0.24,0,0.36,0c0.06-0.01,0.13,0.04,0.1,0.07C14.58,19.95,14.37,19.9,14.23,19.78z"/>
<path class="st72" d="M16.97,19.9c0.12,0,0.24,0,0.36,0C17.21,20.06,17.09,20.06,16.97,19.9z"/>
<path class="st142" d="M17.45,20.01c0.08,0,0.16,0,0.24,0c0.01,0.11-0.07,0.13-0.15,0.12C17.48,20.12,17.43,20.09,17.45,20.01z"/>
<path class="st143" d="M6.96,13.22c0.03,0.15,0.16,0.22,0.25,0.31c0.43,0.37,0.44,1.18-0.02,1.54c-0.14,0.12-0.22,0.35-0.47,0.29
	c-0.3-0.21-0.52-0.44-0.66-0.81c-0.11-0.28,0.03-0.46,0.06-0.69c0.04-0.28,0.31-0.38,0.46-0.57C6.69,13.17,6.84,13.24,6.96,13.22z"
	/>
<path class="st90" d="M4.1,10.84c0,0.12,0,0.24,0,0.36c0,0.06,0.01,0.12,0,0.17c0,0.02-0.07,0.05-0.07,0.05
	C3.94,11.31,3.98,11.02,4.1,10.84z"/>
<path class="st144" d="M4.22,11.56c0,0.04,0,0.08,0,0.12c-0.06,0-0.11-0.01-0.09-0.08C4.13,11.58,4.19,11.57,4.22,11.56z"/>
<path class="st145" d="M8.51,12.15c0-0.12,0-0.24,0-0.36C8.68,11.91,8.68,12.03,8.51,12.15z"/>
<path class="st13" d="M9.7,9.53c0.04,0,0.08,0,0.12,0c0.08,0,0.12,0.04,0.12,0.12c-0.08,0-0.16,0-0.24,0C9.7,9.61,9.7,9.57,9.7,9.53
	z"/>
<path class="st146" d="M15.18,12.27c0,0.04,0,0.08,0,0.12c-0.04,0-0.08,0-0.12,0C15.06,12.31,15.1,12.27,15.18,12.27z"/>
<path class="st146" d="M15.3,12.15c0,0.04,0,0.08,0,0.12c-0.04,0-0.08,0-0.12,0C15.18,12.19,15.22,12.15,15.3,12.15z"/>
</svg>
